<?xml version="1.0" encoding="utf-8"?>
<!-- Generator: Adobe Illustrator 27.5.0, SVG Export Plug-In . SVG Version: 6.00 Build 0)  -->
<svg version="1.1" xmlns="http://www.w3.org/2000/svg" xmlns:xlink="http://www.w3.org/1999/xlink" x="0px" y="0px"
	 viewBox="0 0 114 34" style="enable-background:new 0 0 114 34;" xml:space="preserve">
<style type="text/css">
	.st0{fill:url(#SVGID_1_);}
	.st1{opacity:0.5;fill:url(#SVGID_00000154397591642085299900000017872796464487358098_);}
	.st2{opacity:0.5;fill:url(#SVGID_00000021819304591153905100000016433562541992151721_);}
	.st3{opacity:0.5;fill:url(#SVGID_00000021093472794352840230000000086579340211868049_);}
	.st4{opacity:0.46;fill:url(#SVGID_00000062882939014767370390000014544375507143334043_);}
	.st5{opacity:0.46;fill:url(#SVGID_00000096052693311298501460000001374837836118078388_);}
	.st6{opacity:0.46;fill:url(#SVGID_00000015349800434789279900000018403775973524435331_);}
	.st7{opacity:0.46;fill:url(#SVGID_00000120522127921662436620000005996356047563435693_);}
	.st8{fill:#7F3F98;}
</style>
<g id="background">
</g>
<g id="symbol">
	<g>
		<g>
			<g>
				<linearGradient id="SVGID_1_" gradientUnits="userSpaceOnUse" x1="5.2849" y1="29.3623" x2="29.938" y2="4.7092">
					<stop  offset="0" style="stop-color:#3F51B5"/>
					<stop  offset="6.403565e-03" style="stop-color:#4051B5"/>
					<stop  offset="0.3084" style="stop-color:#683FB3"/>
					<stop  offset="0.5848" style="stop-color:#8432B1"/>
					<stop  offset="0.8244" style="stop-color:#962AB0"/>
					<stop  offset="1" style="stop-color:#9C27B0"/>
				</linearGradient>
				<polygon class="st0" points="26.46,18.42 17.64,26.92 7.38,17.04 17.64,7.15 26.46,15.65 33.8,8.57 24.94,0.04 10.33,0.04 
					0,9.99 0,24.08 10.33,34.04 24.94,34.04 33.8,25.5 				"/>
				
					<linearGradient id="SVGID_00000141414426328638562180000014167745822650503808_" gradientUnits="userSpaceOnUse" x1="3.6991" y1="13.6932" x2="13.939" y2="3.4532">
					<stop  offset="0" style="stop-color:#000000"/>
					<stop  offset="0.0839" style="stop-color:#000000;stop-opacity:0.9161"/>
					<stop  offset="1" style="stop-color:#000000;stop-opacity:0"/>
				</linearGradient>
				<polygon style="opacity:0.5;fill:url(#SVGID_00000141414426328638562180000014167745822650503808_);" points="7.38,17.04 
					0,9.99 10.33,0.04 17.64,7.15 				"/>
				
					<linearGradient id="SVGID_00000057871033475701302510000008727932702549120189_" gradientUnits="userSpaceOnUse" x1="21.9679" y1="11.4821" x2="29.1791" y2="4.2708">
					<stop  offset="0" style="stop-color:#000000;stop-opacity:0"/>
					<stop  offset="0.0757" style="stop-color:#000000;stop-opacity:0.0757"/>
					<stop  offset="1" style="stop-color:#000000"/>
				</linearGradient>
				<polygon style="opacity:0.5;fill:url(#SVGID_00000057871033475701302510000008727932702549120189_);" points="17.64,7.15 
					24.94,0.04 26.46,15.65 				"/>
				
					<linearGradient id="SVGID_00000027598026387135270050000015022691070566517158_" gradientUnits="userSpaceOnUse" x1="13.6481" y1="31.2534" x2="4.059" y2="19.8255">
					<stop  offset="0" style="stop-color:#000000"/>
					<stop  offset="1" style="stop-color:#000000;stop-opacity:0"/>
				</linearGradient>
				<polygon style="opacity:0.5;fill:url(#SVGID_00000027598026387135270050000015022691070566517158_);" points="10.33,34.04 
					17.64,26.92 7.38,17.04 0,24.08 				"/>
				
					<linearGradient id="SVGID_00000163766286446696120640000012314142833026697606_" gradientUnits="userSpaceOnUse" x1="24.9456" y1="34.0345" x2="17.8811" y2="25.6154">
					<stop  offset="0" style="stop-color:#FFFFFF;stop-opacity:0"/>
					<stop  offset="1" style="stop-color:#FFFFFF"/>
				</linearGradient>
				<polygon style="opacity:0.46;fill:url(#SVGID_00000163766286446696120640000012314142833026697606_);" points="26.46,18.42 
					24.94,34.04 10.33,34.04 				"/>
				
					<linearGradient id="SVGID_00000101783251497324913600000009866574963228003507_" gradientUnits="userSpaceOnUse" x1="16.7215" y1="9.2004" x2="9.5689" y2="0.6762">
					<stop  offset="0" style="stop-color:#FFFFFF;stop-opacity:0"/>
					<stop  offset="1" style="stop-color:#FFFFFF"/>
				</linearGradient>
				<polygon style="opacity:0.46;fill:url(#SVGID_00000101783251497324913600000009866574963228003507_);" points="10.33,0.04 
					7.38,17.04 24.94,0.04 				"/>
				
					<linearGradient id="SVGID_00000147211015487779570250000016930367105950982588_" gradientUnits="userSpaceOnUse" x1="13.6481" y1="31.2534" x2="4.4756" y2="20.322">
					<stop  offset="0" style="stop-color:#FFFFFF;stop-opacity:0"/>
					<stop  offset="1" style="stop-color:#FFFFFF"/>
				</linearGradient>
				<polygon style="opacity:0.46;fill:url(#SVGID_00000147211015487779570250000016930367105950982588_);" points="17.64,26.92 
					0,24.08 10.33,34.04 				"/>
			</g>
			
				<linearGradient id="SVGID_00000140700675068873594930000014002288648275533487_" gradientUnits="userSpaceOnUse" x1="3.9001" y1="20.8048" x2="-3.0345" y2="12.5404">
				<stop  offset="0" style="stop-color:#FFFFFF"/>
				<stop  offset="1" style="stop-color:#FFFFFF;stop-opacity:0"/>
			</linearGradient>
			<polygon style="opacity:0.46;fill:url(#SVGID_00000140700675068873594930000014002288648275533487_);" points="7.38,17.04 
				0,24.08 0,9.99 			"/>
		</g>
		<g>
			<path d="M40.27,18.88v-3.35c0-5.33,3.36-8.35,8.3-8.35c4.85,0,8.16,2.74,8.3,7.48h-3.78c-0.11-2.48-1.65-3.85-4.51-3.85
				c-2.94,0-4.51,1.62-4.51,4.72v3.35c0,3.1,1.57,4.86,4.51,4.86c2.77,0,4.35-1.4,4.51-3.77h3.78c-0.22,4.63-3.53,7.26-8.3,7.26
				C43.63,27.22,40.27,24.21,40.27,18.88z"/>
			<path class="st8" d="M58.86,14.98h3.81v3.99h-3.81V14.98z"/>
			<path d="M75.32,22.48h-7.74l-1.21,4.49h-3.84L67.8,7.43h7.34l5.21,19.54h-3.84L75.32,22.48z M74.34,18.85L71.45,8.13l-2.89,10.72
				H74.34z"/>
			<path d="M82.6,7.43h8.33c3.65,0,5.94,2.43,5.94,5.75c0,3.41-1.93,5.81-5.94,5.81h-3.9l10.88,7.98h-6.25l-5.33-4.05v4.05H82.6
				V7.43z M90.23,15.5c1.82,0,2.72-0.59,2.72-2.29c0-1.65-0.9-2.29-2.72-2.29h-3.9v4.58H90.23z"/>
			<path d="M104.5,10.92h-5.69V7.43H114v3.49h-5.72v16.05h-3.78V10.92z"/>
		</g>
	</g>
</g>
</svg>
